<svg xmlns="http://www.w3.org/2000/svg" xmlns:xlink="http://www.w3.org/1999/xlink" width="1024" zoomAndPan="magnify" viewBox="0 0 768 767.999994" height="1024" preserveAspectRatio="xMidYMid meet" version="1.0"><defs><clipPath id="f080d24e45"><path d="M 226 44 L 500 44 L 500 749 L 226 749 Z M 226 44 " clip-rule="nonzero"/></clipPath><clipPath id="19e4754e1b"><path d="M 42.40625 546.117188 L 388.746094 -12.179688 L 725.890625 196.96875 L 379.550781 755.265625 Z M 42.40625 546.117188 " clip-rule="nonzero"/></clipPath><clipPath id="29cc70e348"><path d="M 42.40625 546.117188 L 388.746094 -12.179688 L 725.890625 196.96875 L 379.550781 755.265625 Z M 42.40625 546.117188 " clip-rule="nonzero"/></clipPath></defs><g clip-path="url(#f080d24e45)"><g clip-path="url(#19e4754e1b)"><g clip-path="url(#29cc70e348)"><path fill="#f7ad35" d="M 450.40625 122.78125 C 448.039062 120.710938 445.933594 124.429688 444.117188 125.949219 C 411.144531 154.101562 358.617188 210.050781 333.699219 245.242188 C 247.316406 367.320312 213.449219 564.417969 325.105469 681.148438 C 340.164062 696.890625 372.789062 719.574219 383.15625 735.152344 C 393.734375 750.988281 374.320312 751.339844 362.175781 743.269531 C 174.007812 617.898438 200.433594 365.839844 325.800781 205.003906 C 353.601562 169.320312 387.699219 138.652344 417.964844 105.203125 C 397.601562 111.832031 375.046875 121.625 355.742188 131.523438 C 342.917969 138.105469 317.964844 150.730469 309.308594 161.609375 C 303.253906 169.207031 302.238281 186.832031 291.453125 176.625 C 281.621094 167.308594 286.664062 150.808594 293.632812 141.464844 C 318.714844 107.78125 409.078125 76.8125 448.519531 57.730469 C 467.570312 48.511719 471.132812 34.507812 492.242188 55.609375 C 507.921875 71.265625 495.621094 82.128906 490.011719 97.003906 C 472.035156 144.507812 454.914062 197.96875 440.9375 246.847656 C 438.398438 255.691406 436.664062 273.609375 433.914062 280.042969 C 431.484375 285.738281 423.464844 289.808594 419.589844 283.316406 C 405.332031 259.53125 443.378906 151.820312 450.339844 122.777344 Z M 450.40625 122.78125 " fill-opacity="1" fill-rule="nonzero"/></g></g></g></svg>